<svg width="243" height="37" viewBox="0 0 243 37" fill="none" xmlns="http://www.w3.org/2000/svg">
<path d="M1.64337 9.19989H7.58441L15.5407 28.6195H15.8548L23.811 9.19989H29.7521V36H25.0935V17.588H24.8448L17.4382 35.9215H13.9573L6.55062 17.5488H6.30198V36H1.64337V9.19989ZM51.9328 9.19989H56.7877V26.7089C56.7877 28.6282 56.3341 30.3163 55.4268 31.7732C54.5282 33.2301 53.2632 34.3686 51.6319 35.1887C50.0005 36 48.0943 36.4057 45.9133 36.4057C43.7236 36.4057 41.813 36 40.1816 35.1887C38.5502 34.3686 37.2852 33.2301 36.3867 31.7732C35.4881 30.3163 35.0388 28.6282 35.0388 26.7089V9.19989H39.8937V26.3033C39.8937 27.42 40.138 28.4145 40.6265 29.2869C41.1238 30.1593 41.8217 30.8441 42.7203 31.3414C43.6189 31.8299 44.6832 32.0742 45.9133 32.0742C47.1434 32.0742 48.2077 31.8299 49.1063 31.3414C50.0136 30.8441 50.7115 30.1593 51.2 29.2869C51.6886 28.4145 51.9328 27.42 51.9328 26.3033V9.19989ZM62.0647 36V9.19989H79.2335V13.2696H66.9196V20.5454H78.0557V24.6152H66.9196V36H62.0647ZM82.4788 13.2696V9.19989H103.861V13.2696H95.5779V36H90.7622V13.2696H82.4788Z" fill="black"/>
<path d="M122.037 9.98499H123.431L126.71 17.9936H126.823L130.102 9.98499H131.496V19.633H130.404V12.3028H130.309L127.294 19.633H126.239L123.224 12.3028H123.13V19.633H122.037V9.98499ZM133.01 9.98499H134.348L137.024 14.4887H137.137L139.812 9.98499H141.15L137.664 15.657V19.633H136.496V15.657L133.01 9.98499ZM152.724 9.98499H153.892V16.373C153.892 17.0326 153.737 17.6214 153.426 18.1397C153.118 18.6547 152.683 19.0614 152.121 19.3598C151.559 19.655 150.899 19.8026 150.142 19.8026C149.386 19.8026 148.726 19.655 148.164 19.3598C147.602 19.0614 147.165 18.6547 146.854 18.1397C146.546 17.6214 146.392 17.0326 146.392 16.373V9.98499H147.561V16.2788C147.561 16.7499 147.664 17.1692 147.872 17.5367C148.079 17.901 148.374 18.1883 148.757 18.3988C149.144 18.606 149.605 18.7097 150.142 18.7097C150.679 18.7097 151.141 18.606 151.527 18.3988C151.914 18.1883 152.209 17.901 152.413 17.5367C152.62 17.1692 152.724 16.7499 152.724 16.2788V9.98499ZM163.876 9.98499V19.633H162.745L157.488 12.0578H157.394V19.633H156.225V9.98499H157.356L162.632 17.579H162.727V9.98499H163.876ZM167.382 9.98499V19.633H166.214V9.98499H167.382ZM170.12 9.98499L172.985 18.1067H173.098L175.962 9.98499H177.187L173.644 19.633H172.438L168.896 9.98499H170.12ZM178.69 19.633V9.98499H184.512V11.0214H179.858V14.2814H184.211V15.3178H179.858V18.5966H184.588V19.633H178.69ZM186.618 19.633V9.98499H189.878C190.632 9.98499 191.251 10.1138 191.734 10.3713C192.218 10.6257 192.576 10.9759 192.808 11.4218C193.041 11.8678 193.157 12.375 193.157 12.9435C193.157 13.5119 193.041 14.016 192.808 14.4557C192.576 14.8954 192.22 15.2408 191.739 15.4921C191.258 15.7402 190.644 15.8643 189.897 15.8643H187.259V14.809H189.859C190.374 14.809 190.789 14.7336 191.103 14.5829C191.42 14.4321 191.649 14.2186 191.791 13.9422C191.935 13.6627 192.008 13.3298 192.008 12.9435C192.008 12.5572 191.935 12.2196 191.791 11.9306C191.646 11.6417 191.416 11.4187 191.098 11.2617C190.781 11.1015 190.362 11.0214 189.84 11.0214H187.786V19.633H186.618ZM191.16 15.2989L193.534 19.633H192.177L189.84 15.2989H191.16ZM200.38 12.397C200.324 11.9196 200.094 11.549 199.692 11.2852C199.29 11.0214 198.797 10.8895 198.213 10.8895C197.786 10.8895 197.412 10.9586 197.092 11.0968C196.775 11.235 196.526 11.425 196.347 11.6668C196.172 11.9086 196.084 12.1834 196.084 12.4912C196.084 12.7487 196.145 12.9702 196.267 13.1555C196.393 13.3376 196.553 13.4899 196.748 13.6124C196.943 13.7318 197.147 13.8307 197.36 13.9092C197.574 13.9846 197.77 14.0458 197.949 14.0929L198.929 14.3568C199.18 14.4227 199.46 14.5138 199.768 14.63C200.079 14.7462 200.375 14.9048 200.658 15.1058C200.944 15.3037 201.179 15.558 201.365 15.869C201.55 16.1799 201.643 16.5615 201.643 17.0137C201.643 17.5351 201.506 18.0062 201.233 18.427C200.963 18.8479 200.567 19.1823 200.046 19.4305C199.527 19.6786 198.898 19.8026 198.156 19.8026C197.466 19.8026 196.867 19.6911 196.362 19.4681C195.859 19.2452 195.463 18.9342 195.174 18.5354C194.889 18.1365 194.727 17.6733 194.689 17.1456H195.895C195.927 17.51 196.049 17.8115 196.263 18.0501C196.479 18.2857 196.753 18.4616 197.082 18.5778C197.415 18.6908 197.773 18.7474 198.156 18.7474C198.602 18.7474 199.003 18.6751 199.358 18.5307C199.713 18.3831 199.994 18.1789 200.201 17.9182C200.408 17.6544 200.512 17.3466 200.512 16.9949C200.512 16.6745 200.422 16.4139 200.243 16.2129C200.064 16.0119 199.829 15.8486 199.537 15.7229C199.245 15.5973 198.929 15.4874 198.59 15.3932L197.403 15.054C196.649 14.8373 196.052 14.5279 195.613 14.1259C195.173 13.7239 194.953 13.1979 194.953 12.5477C194.953 12.0076 195.099 11.5365 195.391 11.1345C195.686 10.7293 196.082 10.4153 196.578 10.1923C197.078 9.96614 197.635 9.85308 198.251 9.85308C198.873 9.85308 199.425 9.96457 199.909 10.1876C200.393 10.4074 200.776 10.7089 201.058 11.0921C201.344 11.4752 201.495 11.9102 201.511 12.397H200.38ZM204.732 9.98499V19.633H203.563V9.98499H204.732ZM206.547 11.0214V9.98499H213.783V11.0214H210.749V19.633H209.581V11.0214H206.547ZM214.757 9.98499H216.095L218.77 14.4887H218.884L221.559 9.98499H222.897L219.411 15.657V19.633H218.243V15.657L214.757 9.98499Z" fill="black"/>
<path d="M130.177 31.0231C130.177 32.0406 129.994 32.92 129.626 33.6612C129.259 34.4024 128.755 34.974 128.114 35.376C127.473 35.778 126.742 35.979 125.919 35.979C125.096 35.979 124.364 35.778 123.723 35.376C123.083 34.974 122.579 34.4024 122.211 33.6612C121.844 32.92 121.66 32.0406 121.66 31.0231C121.66 30.0055 121.844 29.1261 122.211 28.3849C122.579 27.6437 123.083 27.0721 123.723 26.6701C124.364 26.2681 125.096 26.0671 125.919 26.0671C126.742 26.0671 127.473 26.2681 128.114 26.6701C128.755 27.0721 129.259 27.6437 129.626 28.3849C129.994 29.1261 130.177 30.0055 130.177 31.0231ZM129.047 31.0231C129.047 30.1877 128.907 29.4826 128.627 28.9079C128.351 28.3331 127.976 27.8981 127.502 27.6029C127.03 27.3077 126.503 27.1601 125.919 27.1601C125.335 27.1601 124.805 27.3077 124.331 27.6029C123.86 27.8981 123.485 28.3331 123.205 28.9079C122.929 29.4826 122.791 30.1877 122.791 31.0231C122.791 31.8585 122.929 32.5636 123.205 33.1383C123.485 33.713 123.86 34.148 124.331 34.4432C124.805 34.7384 125.335 34.8861 125.919 34.8861C126.503 34.8861 127.03 34.7384 127.502 34.4432C127.976 34.148 128.351 33.713 128.627 33.1383C128.907 32.5636 129.047 31.8585 129.047 31.0231ZM132.142 35.8471V26.1991H137.927V27.2355H133.31V30.4954H137.493V31.5319H133.31V35.8471H132.142ZM143.551 35.8471V26.1991H149.534V27.4522H145.006V30.3918H149.105V31.6402H145.006V35.8471H143.551ZM151.324 35.8471V26.1991H154.763C155.51 26.1991 156.13 26.3278 156.624 26.5854C157.12 26.8429 157.49 27.1993 157.735 27.6547C157.98 28.107 158.103 28.6299 158.103 29.2235C158.103 29.8139 157.979 30.3337 157.731 30.7828C157.486 31.2288 157.115 31.5758 156.619 31.8239C156.126 32.072 155.505 32.1961 154.758 32.1961H152.153V30.943H154.626C155.097 30.943 155.48 30.8755 155.776 30.7404C156.074 30.6054 156.292 30.4091 156.43 30.1515C156.569 29.894 156.638 29.5847 156.638 29.2235C156.638 28.8592 156.567 28.5435 156.426 28.2766C156.287 28.0096 156.069 27.8055 155.771 27.6642C155.476 27.5197 155.088 27.4475 154.607 27.4475H152.779V35.8471H151.324ZM156.086 31.4942L158.47 35.8471H156.812L154.475 31.4942H156.086ZM159.874 35.8471V26.1991H165.923V27.4522H161.33V30.3918H165.607V31.6402H161.33V34.594H165.979V35.8471H159.874ZM167.867 35.8471V26.1991H173.916V27.4522H169.323V30.3918H173.601V31.6402H169.323V34.594H173.973V35.8471H167.867ZM178.896 27.4522V26.1991H186.363V27.4522H183.352V35.8471H181.901V27.4522H178.896ZM187.688 35.8471H186.142L189.614 26.1991H191.296L194.768 35.8471H193.223L190.495 27.9515H190.42L187.688 35.8471ZM187.947 32.0689H192.959V33.2938H187.947V32.0689ZM196.161 35.8471V26.1991H197.617V34.594H201.989V35.8471H196.161ZM203.649 35.8471V26.1991H209.698V27.4522H205.105V30.3918H209.383V31.6402H205.105V34.594H209.755V35.8471H203.649ZM211.643 35.8471V26.1991H217.692V27.4522H213.098V30.3918H217.376V31.6402H213.098V34.594H217.748V35.8471H211.643ZM219.636 26.1991H221.403L224.474 33.6989H224.587L227.659 26.1991H229.425V35.8471H228.04V28.8655H227.951L225.106 35.833H223.956L221.111 28.8607H221.021V35.8471H219.636V26.1991Z" fill="black"/>
<rect x="226" y="10" width="17" height="8" rx="1" fill="#0038FF"/>
<path d="M228.359 16V12.3636H229.751C230.013 12.3636 230.232 12.4051 230.406 12.4879C230.581 12.5696 230.712 12.6815 230.798 12.8235C230.886 12.9656 230.93 13.1265 230.93 13.3065C230.93 13.4544 230.901 13.5811 230.844 13.6864C230.788 13.7906 230.711 13.8752 230.615 13.9403C230.52 14.0054 230.412 14.0522 230.294 14.0806V14.1161C230.423 14.1232 230.547 14.1629 230.665 14.2351C230.785 14.3061 230.882 14.4067 230.958 14.5369C231.034 14.6671 231.072 14.8246 231.072 15.0092C231.072 15.1974 231.026 15.3667 230.935 15.517C230.844 15.6662 230.707 15.784 230.523 15.8704C230.34 15.9568 230.109 16 229.831 16H228.359ZM229.017 15.4496H229.726C229.965 15.4496 230.137 15.404 230.243 15.3129C230.349 15.2205 230.402 15.1022 230.402 14.9577C230.402 14.85 230.376 14.753 230.322 14.6665C230.269 14.579 230.193 14.5103 230.095 14.4606C229.997 14.4097 229.88 14.3842 229.744 14.3842H229.017V15.4496ZM229.017 13.9102H229.669C229.783 13.9102 229.885 13.8894 229.976 13.848C230.067 13.8054 230.139 13.7456 230.191 13.6687C230.244 13.5906 230.271 13.4982 230.271 13.3917C230.271 13.2508 230.221 13.1348 230.122 13.0437C230.024 12.9525 229.877 12.907 229.683 12.907H229.017V13.9102ZM231.645 16V12.3636H234.01V12.9158H232.304V13.9031H233.887V14.4553H232.304V15.4478H234.024V16H231.645ZM234.522 12.9158V12.3636H237.423V12.9158H236.299V16H235.646V12.9158H234.522ZM238.01 16H237.307L238.587 12.3636H239.4L240.682 16H239.979L239.008 13.1094H238.98L238.01 16ZM238.033 14.5742H239.951V15.1033H238.033V14.5742Z" fill="white"/>
</svg>
